<svg xmlns="http://www.w3.org/2000/svg" viewBox="0 0 64 64" fill="none">
  <defs>
    <linearGradient id="g" x1="8" y1="6" x2="56" y2="58" gradientUnits="userSpaceOnUse">
      <stop stop-color="#e3c778"/>
      <stop offset="1" stop-color="#a08131"/>
    </linearGradient>
    <linearGradient id="c" x1="10" y1="8" x2="54" y2="56" gradientUnits="userSpaceOnUse">
      <stop stop-color="#2c523f"/>
      <stop offset=".55" stop-color="#1b382b"/>
      <stop offset="1" stop-color="#0d2118"/>
    </linearGradient>
    <linearGradient id="p" x1="20" y1="18" x2="44" y2="46" gradientUnits="userSpaceOnUse">
      <stop stop-color="#fffaf0"/>
      <stop offset="1" stop-color="#e8ddc4"/>
    </linearGradient>
  </defs>
  <rect x="4" y="4" width="56" height="56" rx="16" fill="url(#c)" stroke="url(#g)" stroke-width="2.5"/>
  <path d="M12 28c0-4 2.5-7 6-7M12 36c0-6 3.5-10 8-10" stroke="#e3c778" stroke-width="1.5" stroke-linecap="round" opacity=".7"/>
  <path d="M52 28c0-4-2.5-7-6-7M52 36c0-6-3.5-10-8-10" stroke="#e3c778" stroke-width="1.5" stroke-linecap="round" opacity=".7"/>
  <path d="M22 20h18c1.5 0 2.5 1 2.5 2.5v19c0 1.2-1 2-2.2 1.6L32 40l-8.3 3.1c-1.2.4-2.2-.4-2.2-1.6V22.5c0-1.4 1-2.5 2.5-2.5z" fill="url(#p)" stroke="#c9a84c" stroke-width="1.2"/>
  <path d="M22 20H16c-1.4 0-2.5 1.1-2.5 2.5v17c0 1.2 1 2 2.2 1.6L22 38V20z" fill="#f4ecd8" stroke="#c9a84c" stroke-width="1" stroke-opacity=".85"/>
  <path d="M32 20v22" stroke="url(#g)" stroke-width="2.2" stroke-linecap="round"/>
  <path d="M32 22c4 2 6 5 6 9s-2 7-6 9" stroke="#e3c778" stroke-width="1.8" stroke-linecap="round" fill="none"/>
  <path d="M24 26h10M24 30h8M24 34h11" stroke="#a08131" stroke-width="1.2" stroke-linecap="round" opacity=".55"/>
  <path d="M32 44c-2.2-2.8-7-4.2-7-7.8 0-2.2 1.6-3.5 3.4-3.5 1.4 0 2.4.7 3.6 2.1 1.2-1.4 2.2-2.1 3.6-2.1 1.8 0 3.4 1.3 3.4 3.5 0 3.6-4.8 5-7 7.8z" fill="#c9a84c"/>
  <path d="M46 14l1.2 2.4 2.6.4-1.9 1.8.4 2.6-2.3-1.2-2.3 1.2.4-2.6-1.9-1.8 2.6-.4L46 14z" fill="#e3c778"/>
</svg>
